<svg width="47" height="48" viewBox="0 0 47 48" fill="none" xmlns="http://www.w3.org/2000/svg">
<g clip-path="url(#clip0_33_64)">
<path d="M47.0016 23.859C47.0016 10.7989 36.4795 0.212143 23.5016 0.212143C10.5179 0.21508 -0.00427246 10.7989 -0.00427246 23.862C-0.00427246 35.6619 8.59085 45.4438 19.8239 47.218V30.6946H13.8607V23.862H19.8297V18.6479C19.8297 12.723 23.34 9.45058 28.7069 9.45058C31.2801 9.45058 33.9679 9.91177 33.9679 9.91177V15.728H31.004C28.087 15.728 27.1764 17.5522 27.1764 19.4234V23.859H33.6918L32.6519 30.6916H27.1735V47.2151C38.4065 45.4408 47.0016 35.659 47.0016 23.859Z" fill="white"/>
</g>
<defs>
<clipPath id="clip0_33_64">
<rect width="47" height="47" fill="white" transform="translate(0 0.214264)"/>
</clipPath>
</defs>
</svg>
