<svg width="47" height="47" viewBox="0 0 47 47" fill="none" xmlns="http://www.w3.org/2000/svg">
<g clip-path="url(#clip0_33_65)">
<path d="M23.5 0C17.1227 0 16.3207 0.029375 13.8151 0.141C11.3094 0.2585 9.60269 0.652125 8.1075 1.23375C6.53915 1.82366 5.11857 2.74899 3.94506 3.94506C2.74972 5.11917 1.8245 6.53958 1.23375 8.1075C0.652125 9.59975 0.255563 11.3094 0.141 13.8062C0.029375 16.3178 0 17.1168 0 23.5029C0 29.8832 0.029375 30.6822 0.141 33.1879C0.2585 35.6906 0.652125 37.3973 1.23375 38.8925C1.83594 40.4376 2.63788 41.7477 3.94506 43.0549C5.24931 44.3621 6.55944 45.167 8.10456 45.7663C9.60269 46.3479 11.3064 46.7444 13.8092 46.859C16.3178 46.9706 17.1168 47 23.5 47C29.8832 47 30.6793 46.9706 33.1879 46.859C35.6877 46.7415 37.4002 46.3479 38.8954 45.7663C40.4628 45.176 41.8823 44.2507 43.0549 43.0549C44.3621 41.7477 45.1641 40.4376 45.7663 38.8925C46.3449 37.3973 46.7415 35.6906 46.859 33.1879C46.9706 30.6822 47 29.8832 47 23.5C47 17.1168 46.9706 16.3178 46.859 13.8092C46.7415 11.3094 46.3449 9.59975 45.7663 8.1075C45.1756 6.53954 44.2503 5.11911 43.0549 3.94506C41.8818 2.74855 40.4611 1.82315 38.8925 1.23375C37.3944 0.652125 35.6847 0.255563 33.1849 0.141C30.6763 0.029375 29.8803 0 23.4941 0H23.5029H23.5ZM21.3938 4.23588H23.5029C29.7774 4.23588 30.5206 4.25644 32.9969 4.371C35.2882 4.47381 36.5337 4.85862 37.3621 5.17881C38.4577 5.60475 39.2421 6.11587 40.0646 6.93837C40.8871 7.76087 41.3953 8.54225 41.8212 9.64087C42.1443 10.4663 42.5262 11.7118 42.629 14.0031C42.7436 16.4794 42.7671 17.2226 42.7671 23.4941C42.7671 29.7657 42.7436 30.5118 42.629 32.9881C42.5262 35.2794 42.1414 36.5219 41.8212 37.3503C41.4444 38.3707 40.8431 39.2933 40.0616 40.0499C39.2391 40.8724 38.4578 41.3806 37.3591 41.8065C36.5366 42.1296 35.2911 42.5115 32.9969 42.6173C30.5206 42.7289 29.7774 42.7553 23.5029 42.7553C17.2284 42.7553 16.4823 42.7289 14.006 42.6173C11.7148 42.5115 10.4722 42.1296 9.64381 41.8065C8.62303 41.4303 7.69956 40.83 6.94131 40.0499C6.15921 39.2921 5.55694 38.3686 5.17881 37.3474C4.85862 36.5219 4.47381 35.2764 4.371 32.9852C4.25938 30.5089 4.23588 29.7657 4.23588 23.4882C4.23588 17.2137 4.25938 16.4735 4.371 13.9972C4.47675 11.7059 4.85862 10.4604 5.18175 9.63206C5.60769 8.53638 6.11881 7.75206 6.94131 6.92956C7.76381 6.10706 8.54519 5.59888 9.64381 5.17294C10.4722 4.84981 11.7148 4.46794 14.006 4.36219C16.1739 4.26231 17.014 4.23294 21.3938 4.23V4.23588ZM36.0461 8.13688C35.6757 8.13688 35.309 8.20982 34.9669 8.35153C34.6248 8.49325 34.3139 8.70097 34.052 8.96283C33.7902 9.2247 33.5824 9.53557 33.4407 9.87771C33.299 10.2198 33.2261 10.5865 33.2261 10.9569C33.2261 11.3272 33.299 11.6939 33.4407 12.036C33.5824 12.3782 33.7902 12.6891 34.052 12.9509C34.3139 13.2128 34.6248 13.4205 34.9669 13.5622C35.309 13.7039 35.6757 13.7769 36.0461 13.7769C36.794 13.7769 37.5112 13.4798 38.0401 12.9509C38.569 12.4221 38.8661 11.7048 38.8661 10.9569C38.8661 10.209 38.569 9.49169 38.0401 8.96283C37.5112 8.43398 36.794 8.13688 36.0461 8.13688ZM23.5029 11.4327C21.9022 11.4078 20.3125 11.7015 18.8264 12.2968C17.3402 12.8921 15.9874 13.7771 14.8466 14.9002C13.7057 16.0234 12.7998 17.3623 12.1813 18.839C11.5629 20.3156 11.2445 21.9005 11.2445 23.5015C11.2445 25.1024 11.5629 26.6873 12.1813 28.164C12.7998 29.6406 13.7057 30.9795 14.8466 32.1027C15.9874 33.2259 17.3402 34.1108 18.8264 34.7061C20.3125 35.3014 21.9022 35.5952 23.5029 35.5702C26.6712 35.5208 29.6929 34.2275 31.9159 31.9695C34.1389 29.7116 35.3848 26.6701 35.3848 23.5015C35.3848 20.3329 34.1389 17.2913 31.9159 15.0334C29.6929 12.7754 26.6712 11.4822 23.5029 11.4327ZM23.5029 15.6657C25.5807 15.6657 27.5734 16.4911 29.0426 17.9603C30.5119 19.4295 31.3372 21.4222 31.3372 23.5C31.3372 25.5778 30.5119 27.5705 29.0426 29.0397C27.5734 30.5089 25.5807 31.3343 23.5029 31.3343C21.4251 31.3343 19.4325 30.5089 17.9632 29.0397C16.494 27.5705 15.6686 25.5778 15.6686 23.5C15.6686 21.4222 16.494 19.4295 17.9632 17.9603C19.4325 16.4911 21.4251 15.6657 23.5029 15.6657Z" fill="white"/>
</g>
<defs>
<clipPath id="clip0_33_65">
<rect width="47" height="47" fill="white"/>
</clipPath>
</defs>
</svg>
